<svg width="48" height="15" viewBox="0 0 48 15" fill="none" xmlns="http://www.w3.org/2000/svg">
<path fill-rule="evenodd" clip-rule="evenodd" d="M47.2438 13.2679C47.2438 14.4492 46.4958 14.9997 45.157 14.9997H42.5984V13.8185H45.157C45.3933 13.8185 45.5902 13.7794 45.6693 13.7009C45.7477 13.6218 45.8265 13.5037 45.8265 13.3464C45.8265 13.1886 45.748 13.0314 45.6693 12.9529C45.5902 12.8738 45.4329 12.8347 45.1966 12.8347C43.9766 12.795 42.4409 12.8738 42.4409 11.1418C42.4409 10.3541 42.9526 9.48791 44.3305 9.48791H46.9681V10.6692H44.5271C44.2914 10.6692 44.1335 10.6692 44.0154 10.7476C43.8972 10.8658 43.8188 10.9839 43.8188 11.1809C43.8188 11.3778 43.9369 11.4959 44.0942 11.575C44.252 11.6141 44.4095 11.6535 44.6064 11.6535H45.3148C46.0628 11.6535 46.5354 11.8107 46.8505 12.0867C47.0862 12.3621 47.2438 12.7168 47.2438 13.2679ZM41.6926 12.0867C41.3775 11.8107 40.9049 11.6535 40.1569 11.6535H39.4485C39.2519 11.6535 39.0941 11.6138 38.9368 11.575C38.779 11.4959 38.6614 11.3778 38.6614 11.1809C38.6614 10.9839 38.7005 10.8658 38.858 10.7476C38.9762 10.6692 39.1334 10.6692 39.3698 10.6692H41.8107V9.48791H39.1731C37.7556 9.48791 37.283 10.3541 37.283 11.1418C37.283 12.8735 38.8187 12.795 40.0393 12.8347C40.275 12.8347 40.4328 12.8738 40.5113 12.9529C40.5898 13.0314 40.6692 13.1886 40.6692 13.3464C40.6692 13.5037 40.5901 13.6218 40.5113 13.7009C40.3932 13.7794 40.2359 13.8185 39.9996 13.8185H37.4405V14.9997H39.9996C41.3378 14.9997 42.0861 14.4489 42.0861 13.2679C42.0861 12.7168 41.9289 12.3621 41.6926 12.0867ZM36.6531 13.8584H33.5435V12.756H36.5746V11.654H33.5435V10.6301H36.6531V9.48848H32.2441V15H36.6531V13.8584ZM30.8265 9.76417C30.3933 9.52786 29.8816 9.48819 29.2123 9.48819H26.1812V14.9997H27.5194V12.992H28.9369C29.409 12.992 29.6849 13.0316 29.8819 13.2283C30.1182 13.5037 30.1182 13.9763 30.1182 14.3308V14.9997H31.417V13.9366C31.417 13.4249 31.3779 13.1886 31.2203 12.9132C31.1022 12.7554 30.8665 12.5587 30.5514 12.4406C30.9053 12.323 31.4963 11.8504 31.4963 10.9839C31.496 10.3544 31.2597 9.9999 30.8265 9.76417ZM23.3463 9.48819H19.1336L17.4407 11.2993L15.8265 9.48819H10.5116V14.9997H15.748L17.441 13.1886L19.0552 14.9997H21.6143V13.1498H23.2679C24.4094 13.1498 25.5516 12.8347 25.5516 11.2993C25.5513 9.80327 24.37 9.48819 23.3463 9.48819ZM29.7634 11.7719C29.5668 11.8504 29.3699 11.8504 29.1335 11.8504L27.5194 11.8901V10.6298H29.1335C29.3699 10.6298 29.6062 10.6298 29.7634 10.7479C29.9212 10.827 30.0388 10.9842 30.0388 11.2205C30.0388 11.4568 29.9212 11.6538 29.7634 11.7719ZM23.3463 12.0473H21.614V10.6298H23.3463C23.8189 10.6298 24.1337 10.827 24.1337 11.2993C24.1337 11.7719 23.8187 12.0473 23.3463 12.0473ZM18.2675 12.244L20.3146 10.079V14.5277L18.2675 12.244ZM15.0785 13.8584H11.8107V12.756H14.724V11.654H11.8107V10.6301H15.1179L16.5745 12.2442L15.0785 13.8584ZM43.5822 5.51181H41.6926L39.2122 1.37788V5.51181H36.5355L36.0232 4.29118H33.2675L32.7558 5.51181H31.2201C30.5902 5.51181 29.7634 5.35427 29.2914 4.88166C28.8581 4.40933 28.6218 3.77947 28.6218 2.79514C28.6218 1.96836 28.74 1.22034 29.3302 0.629864C29.7237 0.196637 30.4327 0 31.3379 0H32.5977V1.18124H31.3379C30.8659 1.18124 30.5899 1.26001 30.3145 1.49632C30.0782 1.73262 29.9601 2.16556 29.9601 2.75604C29.9601 3.34652 30.0782 3.77975 30.3145 4.05544C30.5111 4.25208 30.8659 4.33085 31.2198 4.33085H31.8105L33.7001 0.000285536H35.6688L37.8734 5.19702V0H39.9209L42.2437 3.81885V0H43.5819L43.5822 5.51181ZM27.9526 0H26.6144V5.51181H27.9526V0ZM25.1572 0.236307C24.7239 7.25665e-07 24.2519 0 23.5826 0H20.5509V5.51181H21.85V3.50378H23.2673C23.7399 3.50378 24.055 3.54316 24.2516 3.74008C24.4879 4.01577 24.4482 4.48838 24.4482 4.80317V5.51181H25.7865V4.40933C25.7865 3.93701 25.7474 3.7007 25.5507 3.42501C25.4326 3.26747 25.1963 3.07055 24.9209 2.95268C25.2747 2.79514 25.8658 2.3622 25.8658 1.49603C25.8661 0.86617 25.5901 0.511711 25.1572 0.236307ZM19.606 4.37023H16.5351V3.26776H19.5666V2.12618H16.5351V1.14186H19.606V0.000285536H15.1966V5.51209H19.606V4.37023ZM14.2123 0H12.047L10.4328 3.74008L8.70051 0H6.57461V5.19673L4.33056 0H2.3622L0 5.51181H1.41726L1.92898 4.29118H4.68474L5.19645 5.51181H7.87372V1.18124L9.8027 5.51181H10.9443L12.8735 1.18124V5.51181H14.212L14.2123 0ZM35.5512 3.11022L34.6454 0.944939L33.7401 3.11022H35.5512ZM24.1337 2.24433C23.9371 2.36249 23.7402 2.36249 23.4645 2.36249H21.85V1.14214H23.4642C23.7005 1.14214 23.9756 1.14214 24.1335 1.22091C24.2907 1.33907 24.3698 1.4966 24.3698 1.73262C24.3698 1.96864 24.291 2.16528 24.1337 2.24433ZM2.4013 3.11022L3.30686 0.944939L4.21241 3.11022H2.4013Z" fill="#0077A6"/>
</svg>
