<svg width="14" height="15" viewBox="0 0 14 15" fill="none" xmlns="http://www.w3.org/2000/svg">
<path d="M5.39354 6.73268C4.55228 5.55725 3.38134 4.52778 2.05436 3.80803C1.89276 3.7202 1.71565 3.66551 1.53317 3.64709C1.35069 3.62868 1.16642 3.64691 0.990898 3.70073C0.815376 3.75455 0.65205 3.84291 0.510262 3.96075C0.368474 4.0786 0.251007 4.22361 0.164583 4.3875C-0.00965844 4.71837 -0.0472765 5.10575 0.0599802 5.46468C0.167237 5.82361 0.410611 6.12479 0.736717 6.30213C2.78413 7.41215 4.10524 9.52949 4.25994 11.9766V11.9709C4.23436 11.6978 4.28442 11.4229 4.40451 11.1771C4.42105 11.1422 4.44052 11.1044 4.46532 11.0636C5.10539 9.99409 5.44318 8.76698 5.44182 7.51621C5.44182 7.25323 5.42315 6.99214 5.39354 6.73268Z" fill="#3158A6"/>
<path d="M13.4995 4.07007C13.2524 2.97343 12.8871 1.90764 12.4101 0.891908C12.2839 0.625438 12.0861 0.400421 11.8394 0.242667C11.5927 0.0849117 11.3071 0.000807485 11.0154 0C10.7858 0 10.5628 0.0508118 10.3539 0.151895C9.58601 0.522172 9.25847 1.45949 9.62389 2.23572C10.4075 3.91007 10.7948 5.67875 10.7948 7.51635C10.7948 9.35314 10.4054 11.1205 9.63696 12.7675C9.62549 12.7921 9.49106 13.0835 9.49106 13.4205C9.49067 13.5426 9.50382 13.6644 9.53027 13.7835C9.58139 14.0144 9.68384 14.2304 9.82981 14.4152C9.97578 14.5999 10.1614 14.7484 10.3726 14.8495C10.5783 14.9487 10.8033 15.0001 11.0311 15C11.3075 14.999 11.5785 14.9233 11.8163 14.7806C12.0541 14.638 12.25 14.4336 12.3837 14.1886C12.6915 13.6038 13.0025 12.8335 13.2738 11.8437C13.3589 11.5456 13.4309 11.2656 13.4981 10.9626C13.7523 9.83196 13.8806 8.67599 13.8806 7.51635C13.8798 6.35684 13.752 5.201 13.4995 4.07007Z" fill="#449F27"/>
<path d="M6.98335 2.43381C6.95572 2.38861 6.92571 2.34494 6.89346 2.303C6.75716 2.12212 6.5818 1.97527 6.38082 1.8737C6.17984 1.77213 5.95857 1.71854 5.73399 1.71704C5.4982 1.71704 5.37737 1.7465 5.208 1.81515C5.03383 1.88515 4.84952 1.98137 4.68281 2.15975C4.53497 2.31612 4.42104 2.50208 4.34833 2.70571C4.20857 3.08301 4.2251 3.57924 4.46916 3.97654C4.98155 4.81088 5.28295 5.75792 5.39364 6.73281C5.42325 6.99227 5.44139 7.25363 5.44139 7.51688C5.44139 8.77149 5.10397 9.99827 4.46489 11.064C4.30136 11.3371 4.2295 11.6566 4.26004 11.9745C4.28081 12.2059 4.35476 12.4291 4.47597 12.6264C4.59718 12.8236 4.76229 12.9893 4.95807 13.1102C5.06423 13.1745 5.17706 13.224 5.29389 13.26C5.60582 13.3579 5.94115 13.347 6.2463 13.2292C6.55144 13.1113 6.80879 12.8932 6.97721 12.6097C7.89633 11.0743 8.38139 9.3126 8.37941 7.51688C8.38061 5.72517 7.89782 3.9673 6.98335 2.43381Z" fill="#F8002E"/>
<path d="M9.63574 12.7683C10.4044 11.121 10.7939 9.35363 10.7939 7.51657C10.7939 6.88494 10.7515 6.42466 10.7189 6.13249C9.70855 4.4949 8.24368 3.03109 6.52808 1.95972C6.52914 1.95999 6.56782 1.98647 6.57075 1.9881C6.68918 2.07431 6.78947 2.16567 6.89403 2.3027C6.92617 2.34482 6.95617 2.38857 6.98392 2.43378C7.89834 3.96709 8.38114 5.72477 8.37998 7.5163C8.37998 7.73036 8.37304 7.94469 8.3597 8.15766C9.09268 9.57039 9.49224 11.1766 9.49224 12.8607C9.49224 12.994 9.49464 13.2102 9.49117 13.3675C9.50075 13.1873 9.53903 13.0099 9.60453 12.8421C9.6144 12.8172 9.62427 12.7921 9.63574 12.7683Z" fill="#FBBB08"/>
</svg>
