<svg width="25" height="15" viewBox="0 0 25 15" fill="none" xmlns="http://www.w3.org/2000/svg">
<path fill-rule="evenodd" clip-rule="evenodd" d="M12.4632 13.0558C13.7766 14.266 15.5403 15 17.4587 15C21.5789 15 24.9136 11.6395 24.9136 7.50636C24.9136 3.36063 21.5789 0 17.4587 0C15.5403 0 13.7766 0.733892 12.4632 1.94421C10.9568 3.32183 10.0039 5.30469 10.0039 7.50636C10.0041 9.70804 10.9568 11.691 12.4632 13.0558Z" fill="#E9B040"/>
<path fill-rule="evenodd" clip-rule="evenodd" d="M23.9226 11.678C23.9226 11.5492 24.0257 11.4463 24.1543 11.4463C24.2958 11.4463 24.3987 11.5493 24.3987 11.678C24.3987 11.8198 24.2957 11.9227 24.1543 11.9227C24.0257 11.9227 23.9226 11.8198 23.9226 11.678ZM24.1543 11.8713C24.2574 11.8713 24.3472 11.781 24.3472 11.6781C24.3472 11.5752 24.2572 11.498 24.1543 11.498C24.064 11.498 23.9741 11.5752 23.9741 11.6781C23.9741 11.781 24.0641 11.8713 24.1543 11.8713ZM24.1285 11.7941H24.077V11.5751H24.167C24.1801 11.5751 24.2058 11.5751 24.2186 11.5881C24.2443 11.6009 24.2443 11.6139 24.2443 11.6396C24.2443 11.6654 24.2316 11.6912 24.2058 11.6912L24.2574 11.7942H24.1928L24.167 11.7039H24.1285V11.7941V11.6653H24.1801C24.1928 11.6653 24.1928 11.6522 24.1928 11.6395C24.1928 11.6265 24.1928 11.6265 24.1801 11.6137H24.1285V11.7941Z" fill="#E9B040"/>
<path fill-rule="evenodd" clip-rule="evenodd" d="M14.871 6.70822C14.8453 6.43788 14.7938 6.18042 14.7422 5.90993H10.1843C10.2358 5.63959 10.3131 5.38212 10.3903 5.12451H14.5234C14.4337 4.85346 14.3306 4.58704 14.2144 4.32622H10.7123C10.8411 4.05349 10.9829 3.78709 11.1372 3.52792H13.7768C13.607 3.25294 13.4177 2.99047 13.2104 2.74251H11.7038C11.9368 2.45791 12.1907 2.19108 12.4634 1.94421C11.1373 0.746772 9.38618 0 7.45484 0C3.34759 0 0 3.36063 0 7.50636C0 11.6395 3.34759 15 7.45484 15C9.38618 15 11.1372 14.266 12.4634 13.0558C12.732 12.8132 12.9816 12.5506 13.2104 12.2702H11.7038C11.4977 12.0128 11.3175 11.7553 11.1372 11.4719H13.7768C13.9428 11.2173 14.0891 10.9505 14.2146 10.6736H10.7123C10.5963 10.4162 10.4806 10.1587 10.3903 9.88806H14.5234C14.6134 9.6306 14.678 9.36041 14.7421 9.08977C14.7936 8.83231 14.8451 8.56212 14.8709 8.29148C14.897 8.03044 14.9099 7.76825 14.9097 7.50591C14.9097 7.23602 14.8968 6.96568 14.871 6.70822Z" fill="#CC2131"/>
<path fill-rule="evenodd" clip-rule="evenodd" d="M23.9226 9.24443C23.9226 9.10289 24.0257 9 24.1543 9C24.2958 9 24.3987 9.10304 24.3987 9.24443C24.3987 9.37323 24.2957 9.48916 24.1543 9.48916C24.0257 9.48916 23.9226 9.37308 23.9226 9.24443ZM24.1543 9.42461C24.2574 9.42461 24.3472 9.34732 24.3472 9.24443C24.3472 9.14153 24.2572 9.06425 24.1543 9.06425C24.064 9.06425 23.9741 9.14153 23.9741 9.24443C23.9741 9.34732 24.0641 9.42461 24.1543 9.42461ZM24.1285 9.34732H24.077V9.14138H24.2186C24.2443 9.15442 24.2443 9.18018 24.2443 9.20594C24.2443 9.21867 24.2316 9.24443 24.2058 9.25746L24.2574 9.34747H24.1928L24.167 9.27019H24.1285V9.34732V9.23155H24.1543C24.167 9.23155 24.1801 9.23155 24.1801 9.21852C24.1928 9.21852 24.1928 9.20579 24.1928 9.19275C24.1928 9.19275 24.1928 9.18003 24.1801 9.18003C24.1801 9.16699 24.167 9.18003 24.1543 9.18003H24.1285V9.34732Z" fill="white"/>
<path fill-rule="evenodd" clip-rule="evenodd" d="M9.92665 9.66952C9.68207 9.73377 9.50174 9.77256 9.32157 9.77256C8.9353 9.77256 8.70345 9.52783 8.70345 9.09004C8.70345 9.00003 8.71633 8.90986 8.72921 8.80682L8.78073 8.51087L8.81937 8.26614L9.167 6.15463H9.93953L9.84937 6.61818H10.3387L10.2228 7.39071H9.73344L9.5275 8.6524C9.51462 8.71696 9.51462 8.75545 9.51462 8.78121C9.51462 8.94866 9.59191 9.01291 9.78497 9.01291C9.87513 9.01291 9.95226 9.00018 10.0295 8.98715L9.92665 9.66952ZM12.4246 9.64376C12.1414 9.72104 11.8839 9.75953 11.6005 9.75953C10.7249 9.75953 10.2228 9.29598 10.2228 8.38206C10.2228 7.31328 10.8151 6.54074 11.639 6.54074C12.2956 6.54074 12.7205 6.97853 12.7205 7.66075C12.7205 7.89275 12.6948 8.11157 12.6305 8.42055H11.021C11.0082 8.47208 11.0082 8.49784 11.0082 8.5236C11.0082 8.8841 11.2527 9.06428 11.7163 9.06428C12.0124 9.06428 12.2699 9.00003 12.5532 8.87138L12.4246 9.64376ZM11.9482 7.80259V7.64802C11.9482 7.39056 11.8065 7.24887 11.5619 7.24887C11.3043 7.24887 11.1241 7.44193 11.0468 7.80244L11.9482 7.80259ZM3.74638 9.70801H2.94809L3.41164 6.78547L2.36877 9.70801H1.8152L1.7508 6.79835L1.26149 9.70801H0.476074L1.10692 5.9099H2.2786L2.30436 8.25341L3.08978 5.9099H4.37738L3.74638 9.70801ZM5.69075 8.33054C5.61347 8.31751 5.58771 8.31751 5.53618 8.31751C5.07263 8.31751 4.84093 8.49769 4.84093 8.78106C4.84093 8.97427 4.95686 9.10307 5.13704 9.10307C5.5233 9.10307 5.67772 8.78106 5.69075 8.33054ZM6.33448 9.70801H5.63923L5.65211 9.3863C5.47178 9.63072 5.2272 9.75953 4.80229 9.75953C4.41603 9.75953 4.08128 9.41206 4.08128 8.90986C4.08128 8.76833 4.10704 8.63968 4.14568 8.51087C4.27434 8.03429 4.75077 7.73834 5.48466 7.7253C5.57483 7.7253 5.71636 7.7253 5.84517 7.73834C5.87078 7.63529 5.87078 7.5965 5.87078 7.53225C5.87078 7.32616 5.70348 7.26175 5.33009 7.26175C5.09839 7.26175 4.84078 7.3004 4.6606 7.3648L4.54468 7.39056L4.49316 7.40329L4.60908 6.70804C4.98247 6.59211 5.25281 6.54074 5.54906 6.54074C6.24431 6.54074 6.6177 6.86261 6.6177 7.45481C6.6177 7.60938 6.63058 7.7253 6.57906 8.06005L6.39888 9.16733L6.37312 9.36053L6.36024 9.5151L6.34736 9.61815L6.33448 9.70801ZM16.313 6.64379C16.5447 6.64379 16.7508 6.70819 17.034 6.84973L17.1756 6.02567C17.0983 5.98703 17.0725 5.98703 16.9696 5.94839L16.6479 5.85822C16.5449 5.83246 16.4162 5.81958 16.2744 5.81958C15.8751 5.81958 15.6434 5.83246 15.3989 5.97415C15.2701 6.06431 15.1027 6.18024 14.9224 6.38618L14.8193 6.36041L13.9953 6.93974L14.0341 6.61787H13.1841L12.6822 9.70786H13.4935L13.7895 8.04717C13.7895 8.04717 13.9055 7.81516 13.9569 7.73818C14.1115 7.54497 14.2401 7.54498 14.4074 7.54498H14.472C14.445 7.7412 14.432 7.93911 14.4332 8.13718C14.4332 9.14141 14.9996 9.77241 15.8752 9.77241C16.0942 9.77241 16.2876 9.74665 16.5835 9.66937L16.7253 8.79394C16.4679 8.93547 16.236 8.99988 16.0428 8.99988C15.5665 8.99988 15.283 8.63937 15.283 8.07293C15.2827 7.23599 15.7078 6.64379 16.313 6.64379ZM23.1496 5.9099L22.9696 6.99141C22.7763 6.69531 22.5445 6.55362 22.2355 6.55362C21.8105 6.55362 21.4115 6.7982 21.1667 7.26175V7.24902L20.6518 6.93989L20.7033 6.61803H19.8406L19.3513 9.70801H20.1496L20.4201 8.04732C20.4201 8.04732 20.626 7.81532 20.6776 7.73834C20.8064 7.58377 20.935 7.55786 21.0381 7.54513C20.9481 7.80259 20.8965 8.11157 20.8965 8.45935C20.8965 9.23188 21.2955 9.7468 21.8877 9.7468C22.184 9.7468 22.4157 9.64376 22.6345 9.39903L22.596 9.70801H23.3558L23.9738 5.9099H23.1496ZM22.1584 8.97427C21.8879 8.97427 21.7464 8.76833 21.7464 8.36903C21.7464 7.76379 22.0038 7.32616 22.377 7.32616C22.6603 7.32616 22.8021 7.54513 22.8021 7.93139C22.8021 8.54936 22.5446 8.97427 22.1584 8.97427ZM18.4376 8.33054C18.3603 8.31751 18.3345 8.31751 18.283 8.31751C17.8191 8.31751 17.5874 8.49769 17.5874 8.78106C17.5874 8.97427 17.7035 9.10307 17.8837 9.10307C18.27 9.10307 18.4245 8.78106 18.4376 8.33054ZM19.0813 9.70801H18.373L18.3988 9.3863C18.2186 9.63072 17.9737 9.75953 17.5491 9.75953C17.1498 9.75953 16.8023 9.42479 16.8023 8.90986C16.8023 8.17612 17.3557 7.72545 18.2313 7.72545C18.3216 7.72545 18.463 7.72546 18.5791 7.73849C18.6048 7.63544 18.6179 7.59665 18.6179 7.5324C18.6179 7.32631 18.4504 7.2619 18.0642 7.2619C17.8452 7.2619 17.5749 7.30055 17.3947 7.36495L17.2916 7.39071L17.2401 7.40344L17.3559 6.70819C17.7294 6.59226 17.9999 6.54089 18.2959 6.54089C18.9911 6.54089 19.3516 6.86276 19.3516 7.45496C19.3516 7.60953 19.3774 7.72545 19.3131 8.0602L19.1457 9.16748L19.1199 9.36069L19.0942 9.51525L19.0814 9.6183V9.70801H19.0813ZM8.02108 7.27463C8.17565 7.27463 8.39447 7.28752 8.62632 7.32616L8.74224 6.60515C8.51039 6.57938 8.20141 6.54074 8.02108 6.54074C7.11989 6.54074 6.82379 7.03005 6.82379 7.5965C6.82379 7.97004 6.99109 8.24023 7.42888 8.44616C7.75074 8.60073 7.80226 8.62634 7.80226 8.76818C7.80226 8.96108 7.63497 9.07716 7.32583 9.07716C7.08125 9.07716 6.8494 9.03837 6.59194 8.94835L6.50177 9.65633L6.5145 9.66937L6.66907 9.69513C6.72059 9.70786 6.785 9.72089 6.87516 9.73362C7.06822 9.74665 7.23567 9.75938 7.33871 9.75938C8.24005 9.75938 8.61344 9.41191 8.61344 8.72938C8.61344 8.30463 8.40735 8.04717 8.0082 7.86699C7.66057 7.71227 7.62193 7.68681 7.62193 7.54498C7.62193 7.40344 7.7765 7.27463 8.02108 7.27463Z" fill="#1B3771"/>
<path fill-rule="evenodd" clip-rule="evenodd" d="M17.3947 5.78095L17.2528 6.605C16.9696 6.46332 16.7635 6.39907 16.5318 6.39907C15.9266 6.39907 15.5018 6.99127 15.5018 7.82821C15.5018 8.40768 15.785 8.75516 16.2616 8.75516C16.4545 8.75516 16.6864 8.6909 16.9438 8.56225L16.8023 9.42464C16.5061 9.50193 16.313 9.54072 16.094 9.54072C15.2186 9.54072 14.6778 8.90972 14.6778 7.89276C14.6778 6.54075 15.4245 5.58789 16.4932 5.58789C16.6347 5.58789 16.7634 5.60077 16.8664 5.62653L17.1884 5.70382C17.2916 5.74246 17.3174 5.75534 17.3947 5.78095ZM14.7937 6.34754H14.7164C14.4462 6.34754 14.2917 6.47635 14.0469 6.84958L14.1242 6.37315H13.3902L12.8883 9.46329H13.6996C13.9956 7.57059 14.0728 7.24873 14.4591 7.24873H14.5106C14.5879 6.87535 14.6908 6.60485 14.8196 6.36027L14.7937 6.34754ZM10.1329 9.42464C9.91406 9.50193 9.73374 9.52769 9.55356 9.52769C9.14153 9.52769 8.90968 9.29599 8.90968 8.84547C8.90968 8.76819 8.92256 8.66529 8.93544 8.57498L8.98696 8.266L9.02561 8.02157L9.37323 5.90975H10.1715L10.0814 6.3733H10.4934L10.3903 7.13296H9.97832L9.7595 8.42056C9.74662 8.47209 9.74662 8.51088 9.74662 8.54937C9.74662 8.70394 9.8239 8.76834 10.017 8.76834C10.1071 8.76834 10.1843 8.76834 10.2358 8.74258L10.1329 9.42464ZM7.02987 7.35178C7.02987 7.73819 7.21005 8.00838 7.63495 8.21447C7.9697 8.36904 8.02122 8.42041 8.02122 8.54922C8.02122 8.74243 7.87953 8.83244 7.55767 8.83244C7.31309 8.83244 7.09412 8.79395 6.83666 8.71667L6.72073 9.42464L6.75938 9.43768L6.90106 9.46344C6.95243 9.47617 7.01699 9.4892 7.11988 9.4892C7.30006 9.51496 7.45463 9.51496 7.55767 9.51496C8.40734 9.51496 8.80663 9.19295 8.80663 8.48497C8.80663 8.05991 8.63934 7.81517 8.24019 7.62227C7.89257 7.4677 7.85392 7.42921 7.85392 7.28752C7.85392 7.12023 7.99561 7.04294 8.25307 7.04294C8.40764 7.04294 8.62646 7.05582 8.83255 7.08159L8.94832 6.37346C8.74238 6.33481 8.42052 6.30905 8.24019 6.30905C7.33885 6.3089 7.01699 6.78533 7.02987 7.35178ZM23.5621 9.46344H22.8022L22.841 9.16718C22.6221 9.39888 22.3902 9.50193 22.094 9.50193C21.5018 9.50193 21.1155 9.00004 21.1155 8.22751C21.1155 7.19736 21.7207 6.32178 22.4287 6.32178C22.7507 6.32178 22.9824 6.46347 23.2015 6.74669L23.3817 5.66517H24.18L23.5621 9.46344ZM22.3773 8.74243C22.7509 8.74243 23.0083 8.30464 23.0083 7.6994C23.0083 7.30025 22.8665 7.09416 22.5833 7.09416C22.2228 7.09416 21.9526 7.51907 21.9526 8.12431C21.9526 8.53649 22.0941 8.74243 22.3773 8.74243ZM12.6049 9.39888C12.3215 9.4892 12.0641 9.52769 11.768 9.52769C10.8666 9.52769 10.4031 9.05141 10.4031 8.13719C10.4031 7.08143 10.9954 6.29602 11.8066 6.29602C12.4761 6.29602 12.9008 6.73381 12.9008 7.41618C12.9008 7.64803 12.8751 7.867 12.7978 8.18871H11.2015C11.1886 8.22751 11.1886 8.25327 11.1886 8.27903C11.1886 8.63953 11.4334 8.81971 11.8968 8.81971C12.1929 8.81971 12.4503 8.76819 12.7337 8.6265L12.6049 9.39888ZM12.1542 7.55771V7.4033C12.1542 7.14584 12.0125 7.00415 11.768 7.00415C11.5105 7.00415 11.3302 7.19736 11.2529 7.55771H12.1542ZM3.95262 9.46344H3.15432L3.61787 6.5406L2.575 9.46344H2.02128L1.95688 6.56636L1.46772 9.46344H0.720947L1.35179 5.66517H2.51059L2.54924 8.02142L3.32162 5.66517H4.58346L3.95262 9.46344ZM5.94835 8.08567C5.87107 8.08567 5.83243 8.07294 5.76802 8.07294C5.31735 8.07294 5.08565 8.24024 5.08565 8.54922C5.08565 8.74243 5.1887 8.8582 5.36888 8.8582C5.70362 8.8582 5.93547 8.54922 5.94835 8.08567ZM6.54056 9.46344H5.87092L5.8838 9.14142C5.67771 9.39888 5.40737 9.51496 5.03398 9.51496C4.59619 9.51496 4.30009 9.18022 4.30009 8.67802C4.30009 7.91852 4.81501 7.48073 5.71635 7.48073C5.80651 7.48073 5.92244 7.49361 6.05109 7.50634C6.07686 7.40345 6.07686 7.36481 6.07686 7.31329C6.07686 7.10735 5.93517 7.03006 5.56178 7.03006C5.33008 7.03006 5.07247 7.05583 4.89229 7.10735L4.77637 7.14599L4.69908 7.15887L4.81501 6.46362C5.21416 6.34769 5.4845 6.30905 5.78075 6.30905C6.476 6.30905 6.84939 6.61804 6.84939 7.21024C6.84939 7.36481 6.83651 7.48073 6.78499 7.82836L6.60466 8.92291L6.5789 9.11581L6.56602 9.27038L6.55313 9.38646L6.54056 9.46344ZM18.6952 8.08567C18.6048 8.08567 18.5663 8.07294 18.515 8.07294C18.0514 8.07294 17.8194 8.24024 17.8194 8.54922C17.8194 8.74243 17.9355 8.8582 18.1157 8.8582C18.4377 8.8582 18.6821 8.54922 18.6952 8.08567ZM19.2874 9.46344H18.6179L18.6306 9.14142C18.4247 9.39888 18.1543 9.51496 17.7809 9.51496C17.3431 9.51496 17.0469 9.18022 17.0469 8.67802C17.0469 7.91852 17.5618 7.48073 18.4632 7.48073C18.5535 7.48073 18.6694 7.49361 18.7852 7.50634C18.8109 7.40345 18.824 7.36481 18.824 7.31329C18.824 7.10735 18.6821 7.03006 18.309 7.03006C18.077 7.03006 17.8068 7.05583 17.6265 7.10735L17.5235 7.14599L17.4462 7.15887L17.562 6.46362C17.9613 6.34769 18.2315 6.30905 18.5277 6.30905C19.223 6.30905 19.5835 6.61804 19.5835 7.21024C19.5835 7.36481 19.5835 7.48073 19.5192 7.82836L19.3518 8.92291L19.326 9.11581L19.3002 9.27038L19.2875 9.38646L19.2874 9.46344ZM21.4504 6.34754H21.3731C21.1029 6.34754 20.9484 6.47635 20.7036 6.84958L20.7809 6.37315H20.0469L19.5575 9.46329H20.3558C20.6521 7.57059 20.7294 7.24873 21.1156 7.24873H21.1672C21.2445 6.87535 21.3473 6.60485 21.4762 6.36027L21.4504 6.34754Z" fill="white"/>
</svg>
