<svg width="57" height="15" viewBox="0 0 57 15" fill="none" xmlns="http://www.w3.org/2000/svg">
<path d="M6.76927 0.00048841H2.38146C2.2362 0.000396985 2.09568 0.0520765 1.98523 0.146215C1.87477 0.240354 1.80164 0.370762 1.77901 0.513942L0.00438441 11.7414C-0.0037741 11.7935 -0.000519625 11.8468 0.0139221 11.8975C0.0283639 11.9482 0.0536502 11.9952 0.088041 12.0352C0.122432 12.0753 0.165109 12.1074 0.213135 12.1294C0.261161 12.1514 0.313394 12.1628 0.366239 12.1627H2.46102C2.60637 12.1627 2.74697 12.111 2.85743 12.0167C2.9679 11.9224 3.04098 11.7919 3.06347 11.6486L3.54209 8.62036C3.56457 8.47718 3.63754 8.3467 3.74788 8.25245C3.85822 8.15819 3.99865 8.10636 4.1439 8.10627H5.53293C8.42328 8.10627 10.0914 6.7106 10.527 3.94486C10.7234 2.73485 10.5354 1.78413 9.96758 1.11831C9.34396 0.387179 8.23786 0.00048841 6.76927 0.00048841ZM7.27548 4.10108C7.03553 5.67217 5.83255 5.67217 4.66936 5.67217H4.00724L4.47175 2.73805C4.48535 2.65221 4.5292 2.57403 4.59542 2.51758C4.66163 2.46113 4.74587 2.43011 4.83296 2.43011H5.13643C5.92879 2.43011 6.67624 2.43011 7.06247 2.88082C7.2928 3.14971 7.36338 3.54921 7.27548 4.10108ZM19.8852 4.0505H17.784C17.6969 4.0505 17.6127 4.08152 17.5465 4.13797C17.4803 4.19442 17.4364 4.2726 17.4228 4.35844L17.3298 4.94488L17.1829 4.73233C16.728 4.07355 15.7136 3.85331 14.7012 3.85331C12.3793 3.85331 10.3962 5.60815 10.0099 8.06978C9.80911 9.29771 10.0946 10.4719 10.7927 11.2907C11.433 12.0436 12.3491 12.3573 13.4392 12.3573C15.3101 12.3573 16.3475 11.1569 16.3475 11.1569L16.2538 11.7395C16.2455 11.7916 16.2486 11.8449 16.2628 11.8957C16.2771 11.9464 16.3022 11.9935 16.3365 12.0337C16.3708 12.0739 16.4134 12.1061 16.4614 12.1283C16.5093 12.1504 16.5615 12.162 16.6144 12.162H18.5071C18.6524 12.1621 18.793 12.1103 18.9035 12.0161C19.014 11.9218 19.087 11.7912 19.1095 11.6479L20.2451 4.47176C20.2535 4.41979 20.2505 4.36662 20.2362 4.31594C20.222 4.26526 20.1969 4.21827 20.1626 4.17821C20.1284 4.13816 20.0859 4.10599 20.038 4.08394C19.9901 4.06189 19.938 4.05048 19.8852 4.0505ZM16.9564 8.13124C16.7536 9.32908 15.8009 10.1332 14.5857 10.1332C13.9756 10.1332 13.488 9.93793 13.1749 9.56788C12.8643 9.2004 12.7463 8.67734 12.8451 8.09475C13.0344 6.90714 14.0032 6.07678 15.1997 6.07678C15.7964 6.07678 16.2814 6.27461 16.6009 6.64786C16.9211 7.02494 17.0481 7.5512 16.9564 8.13124ZM31.0758 4.0505H28.9643C28.8647 4.05066 28.7667 4.07505 28.6787 4.12158C28.5907 4.1681 28.5154 4.23534 28.4594 4.31747L25.5472 8.59796L24.3128 4.48456C24.2749 4.35911 24.1976 4.24916 24.0922 4.17098C23.9868 4.09281 23.859 4.05056 23.7277 4.0505H21.6528C21.5945 4.05034 21.5371 4.06407 21.4853 4.09054C21.4334 4.11701 21.3886 4.15546 21.3547 4.20268C21.3207 4.2499 21.2986 4.30453 21.29 4.36203C21.2815 4.41952 21.2869 4.47821 21.3057 4.53322L23.6314 11.3438L21.4449 14.4239C21.4061 14.4785 21.383 14.5428 21.3783 14.6096C21.3736 14.6764 21.3874 14.7432 21.4182 14.8027C21.449 14.8622 21.4956 14.9121 21.553 14.9469C21.6103 14.9817 21.6761 15.0001 21.7433 15.0001H23.8521C23.9506 15.0003 24.0476 14.9766 24.1349 14.9311C24.2222 14.8856 24.2971 14.8196 24.3532 14.7389L31.376 4.62349C31.4141 4.56877 31.4364 4.50469 31.4406 4.4382C31.4448 4.37171 31.4306 4.30536 31.3997 4.24632C31.3687 4.18729 31.3222 4.13783 31.2651 4.10331C31.208 4.0688 31.1425 4.05053 31.0758 4.0505Z" fill="#253B80"/>
<path d="M38.0668 0.00064017H33.6783C33.5332 0.000701274 33.3928 0.0524497 33.2825 0.146575C33.1722 0.2407 33.0991 0.371022 33.0765 0.514094L31.3019 11.7416C31.2936 11.7936 31.2968 11.8468 31.3111 11.8974C31.3254 11.9481 31.3506 11.9951 31.3849 12.0351C31.4191 12.0752 31.4617 12.1073 31.5096 12.1294C31.5575 12.1514 31.6097 12.1628 31.6625 12.1628H33.9144C34.016 12.1627 34.1142 12.1264 34.1914 12.0604C34.2685 11.9945 34.3196 11.9032 34.3353 11.803L34.8389 8.62051C34.8614 8.47733 34.9344 8.34685 35.0447 8.2526C35.1551 8.15835 35.2955 8.10651 35.4408 8.10642H36.8291C39.7201 8.10642 41.3876 6.71075 41.8239 3.94501C42.0209 2.735 41.8316 1.78428 41.2638 1.11846C40.6408 0.387331 39.5354 0.00064017 38.0668 0.00064017ZM38.573 4.10123C38.3337 5.67232 37.1307 5.67232 35.9669 5.67232H35.3054L35.7705 2.73821C35.7839 2.65236 35.8276 2.57412 35.8937 2.51763C35.9598 2.46115 36.044 2.43015 36.1311 2.43026H36.4346C37.2263 2.43026 37.9744 2.43026 38.3606 2.88097C38.5909 3.14987 38.6609 3.54936 38.573 4.10123ZM51.1821 4.05065H49.0822C48.9951 4.05041 48.9108 4.08136 48.8446 4.13787C48.7784 4.19437 48.7348 4.27269 48.7216 4.35859L48.6286 4.94503L48.481 4.73248C48.0261 4.0737 47.0124 3.85346 46 3.85346C43.6781 3.85346 41.6956 5.6083 41.3093 8.06993C41.1092 9.29786 41.3934 10.472 42.0914 11.2909C42.733 12.0438 43.6479 12.3575 44.738 12.3575C46.6088 12.3575 47.6463 11.1571 47.6463 11.1571L47.5526 11.7396C47.5443 11.7918 47.5474 11.8452 47.5617 11.8961C47.576 11.947 47.6013 11.9942 47.6357 12.0343C47.6701 12.0745 47.7129 12.1068 47.761 12.1288C47.8091 12.1509 47.8615 12.1623 47.9145 12.1622H49.8065C49.9518 12.1621 50.0922 12.1103 50.2025 12.016C50.3129 11.9218 50.3858 11.7913 50.4083 11.6481L51.5446 4.47191C51.5526 4.41978 51.5493 4.36652 51.5348 4.3158C51.5202 4.26507 51.4949 4.21809 51.4604 4.17806C51.426 4.13804 51.3833 4.10593 51.3352 4.08394C51.2872 4.06194 51.2349 4.05059 51.1821 4.05065ZM48.2532 8.13139C48.0518 9.32923 47.0977 10.1333 45.8826 10.1333C45.2737 10.1333 44.7848 9.93808 44.4717 9.56804C44.1612 9.20055 44.0444 8.67749 44.1419 8.0949C44.3325 6.9073 45.3 6.07693 46.4966 6.07693C47.0932 6.07693 47.5783 6.27476 47.8978 6.64801C48.2192 7.0251 48.3463 7.55135 48.2532 8.13139ZM53.6592 0.308584L51.8583 11.7416C51.85 11.7936 51.8532 11.8468 51.8675 11.8974C51.8818 11.9481 51.907 11.9951 51.9413 12.0351C51.9756 12.0752 52.0181 12.1073 52.066 12.1294C52.114 12.1514 52.1661 12.1628 52.2189 12.1628H54.0294C54.3303 12.1628 54.5857 11.9452 54.6319 11.6487L56.4078 0.421903C56.416 0.369862 56.4129 0.316657 56.3986 0.265945C56.3843 0.215233 56.3591 0.168217 56.3248 0.128128C56.2906 0.0880398 56.248 0.0558295 56.2001 0.0337117C56.1522 0.0115938 56.1 9.32409e-05 56.0472 0H54.0198C53.9328 0.000307546 53.8487 0.0315299 53.7826 0.0880742C53.7165 0.144619 53.6728 0.22279 53.6592 0.308584Z" fill="#179BD7"/>
</svg>
