<svg width="47" height="15" viewBox="0 0 47 15" fill="none" xmlns="http://www.w3.org/2000/svg">
<path d="M20.0438 14.75H16.271L18.629 0.258934H22.4021L20.0438 14.75ZM13.0971 0.258934L9.50035 10.226L9.07473 8.07969L9.07512 8.08047L7.80564 1.56369C7.80564 1.56369 7.65214 0.258934 6.01597 0.258934H0.069773L0 0.504302C0 0.504302 1.81836 0.882626 3.94643 2.16063L7.2242 14.7504H11.1551L17.1575 0.258934H13.0971ZM42.7719 14.75H46.2361L43.2157 0.258547H40.183C38.7825 0.258547 38.4414 1.33848 38.4414 1.33848L32.8146 14.75H36.7474L37.5339 12.5975H42.33L42.7719 14.75ZM38.6204 9.624L40.6028 4.2011L41.718 9.624H38.6204ZM33.1095 3.7437L33.648 0.631831C33.648 0.631831 31.9866 0 30.2547 0C28.3824 0 23.9363 0.81828 23.9363 4.79727C23.9363 8.54097 29.1546 8.58749 29.1546 10.5539C29.1546 12.5203 24.474 12.168 22.9293 10.928L22.3684 14.1817C22.3684 14.1817 24.053 15 26.6269 15C29.2015 15 33.0855 13.6669 33.0855 10.0388C33.0855 6.27103 27.8204 5.92023 27.8204 4.28211C27.8208 2.64362 31.4951 2.8541 33.1095 3.7437Z" fill="#2566AF"/>
<path d="M9.07512 8.07959L7.80564 1.56281C7.80564 1.56281 7.65214 0.258057 6.01597 0.258057H0.069773L0 0.503424C0 0.503424 2.85797 1.09572 5.59927 3.31488C8.2204 5.43598 9.07512 8.07959 9.07512 8.07959Z" fill="#E6A540"/>
</svg>
